<?xml version="1.0" encoding="utf-8"?>
<!-- Generator: Adobe Illustrator 18.0.0, SVG Export Plug-In . SVG Version: 6.00 Build 0)  -->
<!DOCTYPE svg PUBLIC "-//W3C//DTD SVG 1.1//EN" "http://www.w3.org/Graphics/SVG/1.1/DTD/svg11.dtd">
<svg version="1.1" id="Layer_1" xmlns="http://www.w3.org/2000/svg" xmlns:xlink="http://www.w3.org/1999/xlink" x="0px" y="0px"
	 viewBox="0 0 595.3 841.9" enable-background="new 0 0 595.3 841.9" xml:space="preserve">
<g>
	<circle fill="#B2191E" cx="238.8" cy="420.8" r="15.8"/>
	<path fill="#FFFFFF" d="M247.5,410.4C247.5,410.4,247.5,410.4,247.5,410.4L247.5,410.4c-2.6,0-17.8,0-17.8,0h-0.3
		c-1,0.1-2.3,1.3-3.3,2.9c-0.4,0.6-0.6,1.3-0.8,1.9c-0.1,0.3-0.1,0.5-0.2,0.8c0.5-1.1,1.5-1.8,2.7-1.8h0c0,0,18.2,0,20.9,0
		c0.2-0.4,0.3-0.8,0.3-1.3C249.2,411.8,248.5,410.8,247.5,410.4z"/>
	<path fill="#FFFFFF" d="M225.5,418.3C225.5,418.4,225.5,418.4,225.5,418.3L225.5,418.3c1.3,2.2,8.9,15.4,8.9,15.4l0.2,0.3
		c0.6,0.8,2.3,1.4,4.1,1.4c0.7,0,1.4-0.1,2-0.3c0.3-0.1,0.5-0.2,0.8-0.3c-1.1,0.1-2.3-0.4-2.9-1.5l0,0c0,0-9.1-15.8-10.5-18.1
		c-0.5,0-0.9,0.1-1.3,0.4C225.8,416.2,225.3,417.3,225.5,418.3z"/>
	<path fill="#FFFFFF" d="M243.4,433.5C243.4,433.5,243.4,433.5,243.4,433.5L243.4,433.5c1.3-2.2,8.9-15.4,8.9-15.4l0.2-0.3
		c0.4-1,0.1-2.7-0.9-4.3c-0.4-0.6-0.8-1.2-1.2-1.6c-0.2-0.2-0.4-0.4-0.6-0.5c0.7,0.9,0.8,2.2,0.2,3.3l0,0c0,0-9.1,15.8-10.5,18.1
		c0.2,0.4,0.6,0.7,0.9,0.9C241.3,434.2,242.5,434.2,243.4,433.5z"/>
	<path fill="#B2191E" d="M281.9,411.5c0.8-0.7,1.6-1.2,2.5-1.5H257v4.5h8V435h5.3v-20.6h9.1C280.1,413.3,280.9,412.3,281.9,411.5z"
		/>
	<path fill="#B2191E" d="M301,430.5h-8.5c-5.1,0-7-1.5-7.4-5.7h14.1v-4.5h-14.1c0.2-2.5,0.3-3,1.1-4.1c1.1-1.4,2.4-1.8,6-1.8h6.9
		V410h-9c-3.4,0-5.1,0.5-6.9,2c-2.9,2.4-4.2,5.9-4.2,10.5c0,4,1.2,7.5,3.3,9.7c2,2.1,4.5,2.8,9.9,2.8h14.6
		C304.2,434.2,302.3,432.6,301,430.5z"/>
	<path fill="#B2191E" d="M313.5,414c-4.7,0-6.6,2.5-6.6,8.4c0,5.9,2,8.5,6.6,8.5c4.3,0,6.4-2.7,6.4-8.5
		C319.9,416.7,317.9,414,313.5,414z M313.7,435.1c-8.3,0-12.7-4.4-12.7-12.5c0-8.7,4-12.8,12.4-12.8c8.4,0,12.3,4.2,12.3,13.3
		C325.7,430.9,321.5,435.1,313.7,435.1"/>
	<path fill="#B2191E" d="M348.2,430.5h-8.3c-5,0-6.8-2.3-6.8-8.4c0-5.6,1.8-7.7,6.6-7.7h7.8V410h-8.5c-2.4,0-4.9,0.4-6.3,1.1
		c-3.5,1.7-5.5,5.8-5.5,11.4c0,4.5,1.1,8,3.3,10c1.9,1.9,4,2.5,8.3,2.5h15.2C351.5,434.2,349.5,432.6,348.2,430.5z"/>
	<path fill="#B2191E" d="M360.8,414c-4.7,0-6.6,2.5-6.6,8.4c0,5.9,2,8.5,6.6,8.5c4.4,0,6.4-2.7,6.4-8.5
		C367.1,416.7,365.1,414,360.8,414z M361,435.1c-8.3,0-12.7-4.4-12.7-12.5c0-8.7,4-12.8,12.4-12.8c8.4,0,12.3,4.2,12.3,13.3
		C373,430.9,368.8,435.1,361,435.1"/>
</g>
</svg>
