<?xml version="1.0" encoding="utf-8"?>
<!-- Generator: Adobe Illustrator 18.0.0, SVG Export Plug-In . SVG Version: 6.00 Build 0)  -->
<!DOCTYPE svg PUBLIC "-//W3C//DTD SVG 1.1//EN" "http://www.w3.org/Graphics/SVG/1.1/DTD/svg11.dtd">
<svg version="1.1" id="Layer_1" xmlns="http://www.w3.org/2000/svg" xmlns:xlink="http://www.w3.org/1999/xlink" x="0px" y="0px"
	 viewBox="0 0 150.7 32" enable-background="new 0 0 150.7 32" xml:space="preserve">
<g>
	<circle fill="#B2191E" cx="16.1" cy="16" r="15.8"/>
	<path fill="#FFFFFF" d="M24.9,5.7C24.9,5.7,24.9,5.6,24.9,5.7L24.9,5.7c-2.6,0-17.8,0-17.8,0H6.8c-1,0.1-2.3,1.3-3.3,2.9
		c-0.4,0.6-0.6,1.3-0.8,1.9c-0.1,0.3-0.1,0.5-0.2,0.8C3,10.2,4,9.4,5.3,9.4h0c0,0,18.2,0,20.9,0c0.2-0.4,0.3-0.8,0.3-1.3
		C26.6,7,25.9,6.1,24.9,5.7z"/>
	<path fill="#FFFFFF" d="M2.8,13.6C2.8,13.6,2.8,13.6,2.8,13.6L2.8,13.6C4.1,15.8,11.7,29,11.7,29l0.2,0.3c0.6,0.8,2.3,1.4,4.1,1.4
		c0.7,0,1.4-0.1,2-0.3c0.3-0.1,0.5-0.2,0.8-0.3c-1.1,0.1-2.3-0.4-2.9-1.5l0,0c0,0-9.1-15.8-10.5-18.1c-0.5,0-0.9,0.1-1.3,0.4
		C3.2,11.4,2.7,12.5,2.8,13.6z"/>
	<path fill="#FFFFFF" d="M20.7,28.7C20.7,28.7,20.7,28.7,20.7,28.7L20.7,28.7c1.3-2.2,8.9-15.4,8.9-15.4l0.2-0.3
		c0.4-1,0.1-2.7-0.9-4.3c-0.4-0.6-0.8-1.2-1.2-1.6c-0.2-0.2-0.4-0.4-0.6-0.5c0.7,0.9,0.8,2.2,0.2,3.3l0,0c0,0-9.1,15.8-10.5,18.1
		c0.2,0.4,0.6,0.7,0.9,0.9C18.7,29.5,19.9,29.4,20.7,28.7z"/>
	<path fill="#B2191E" d="M59.3,6.7c0.8-0.7,1.6-1.2,2.5-1.5H34.3v4.5h8v20.6h5.3V9.7h9.1C57.4,8.5,58.3,7.6,59.3,6.7z"/>
	<path fill="#B2191E" d="M78.3,25.8h-8.5c-5.1,0-7-1.5-7.4-5.7h14.1v-4.5H62.4c0.2-2.5,0.3-3,1.1-4.1c1.1-1.4,2.4-1.8,6-1.8h6.9V5.2
		h-9c-3.4,0-5.1,0.5-6.9,2c-2.9,2.4-4.2,5.9-4.2,10.5c0,4,1.2,7.5,3.3,9.7c2,2.1,4.5,2.8,9.9,2.8h14.6
		C81.6,29.4,79.6,27.9,78.3,25.8z"/>
	<path fill="#B2191E" d="M90.9,9.2c-4.7,0-6.6,2.5-6.6,8.4c0,5.9,2,8.5,6.6,8.5c4.3,0,6.4-2.7,6.4-8.5C97.2,11.9,95.2,9.2,90.9,9.2z
		 M91.1,30.4c-8.3,0-12.7-4.4-12.7-12.5c0-8.7,4-12.8,12.4-12.8c8.4,0,12.3,4.2,12.3,13.3C103.1,26.2,98.9,30.4,91.1,30.4"/>
	<path fill="#B2191E" d="M125.6,25.8h-8.3c-5,0-6.8-2.3-6.8-8.4c0-5.6,1.8-7.7,6.6-7.7h7.8V5.2h-8.5c-2.4,0-4.9,0.4-6.3,1.1
		c-3.5,1.7-5.5,5.8-5.5,11.4c0,4.5,1.1,8,3.3,10c1.9,1.9,4,2.5,8.3,2.5h15.2C128.9,29.4,126.9,27.9,125.6,25.8z"/>
	<path fill="#B2191E" d="M138.1,9.2c-4.7,0-6.6,2.5-6.6,8.4c0,5.9,2,8.5,6.6,8.5c4.4,0,6.4-2.7,6.4-8.5
		C144.5,11.9,142.5,9.2,138.1,9.2z M138.3,30.4c-8.3,0-12.7-4.4-12.7-12.5c0-8.7,4-12.8,12.4-12.8c8.4,0,12.3,4.2,12.3,13.3
		C150.4,26.2,146.2,30.4,138.3,30.4"/>
</g>
</svg>
